<svg width="52" height="52" viewBox="0 0 52 52" fill="none" xmlns="http://www.w3.org/2000/svg">
<circle cx="26" cy="26" r="26" fill="#557592"/>
<path fill-rule="evenodd" clip-rule="evenodd" d="M18.5625 19.125C18.5625 15.0174 21.8924 11.6875 26 11.6875C30.1076 11.6875 33.4375 15.0174 33.4375 19.125C33.4375 23.2326 30.1076 26.5625 26 26.5625C21.8924 26.5625 18.5625 23.2326 18.5625 19.125ZM26 14.3125C23.3421 14.3125 21.1875 16.4671 21.1875 19.125C21.1875 21.7829 23.3421 23.9375 26 23.9375C28.6579 23.9375 30.8125 21.7829 30.8125 19.125C30.8125 16.4671 28.6579 14.3125 26 14.3125Z" fill="white"/>
<path fill-rule="evenodd" clip-rule="evenodd" d="M19 31.8125C16.8254 31.8125 15.0625 33.5755 15.0625 35.75V37.8295C15.0625 37.8612 15.0854 37.8882 15.1167 37.8932C22.3245 39.0701 29.6755 39.0701 36.8832 37.8932C36.9146 37.8882 36.9375 37.8612 36.9375 37.8295V35.75C36.9375 33.5755 35.1745 31.8125 33 31.8125H32.4034C32.3574 31.8125 32.3116 31.8198 32.2676 31.834L30.753 32.3288C27.6646 33.3371 24.3354 33.3371 21.247 32.3288L19.7323 31.834C19.6885 31.8198 19.6426 31.8125 19.5965 31.8125H19ZM12.4375 35.75C12.4375 32.1256 15.3756 29.1875 19 29.1875H19.5965C19.9194 29.1875 20.2402 29.2386 20.5471 29.3387L22.0618 29.8334C24.6208 30.6689 27.3792 30.6689 29.9382 29.8334L31.4528 29.3387C31.7598 29.2386 32.0805 29.1875 32.4034 29.1875H33C36.6244 29.1875 39.5625 32.1256 39.5625 35.75V37.8295C39.5625 39.1476 38.6072 40.2715 37.3062 40.4839C29.8183 41.7065 22.1817 41.7065 14.6937 40.4839C13.3928 40.2715 12.4375 39.1476 12.4375 37.8295V35.75Z" fill="white"/>
</svg>
