<svg width="70" height="70" viewBox="0 0 70 70" fill="none" xmlns="http://www.w3.org/2000/svg">
<path d="M59.8825 47.045H45.6339V57.5236C45.6339 62.3965 44.2377 65.9422 41.4645 68.0419C37.1038 71.3499 31.1749 69.4879 30.9262 69.3889C29.9699 69.0719 29.3197 68.1608 29.3197 67.1307V54.7108C29.3197 50.868 27.541 47.6194 24.041 45.0047C21.765 43.3012 19.4317 42.4098 18.6093 42.1325C17.9973 43.1031 16.9454 43.737 15.7404 43.737H3.4235C1.53005 43.737 0 42.1325 0 40.1913V5.40769C0 3.44666 1.54918 1.86198 3.4235 1.86198H15.7404C16.582 1.86198 17.347 2.17892 17.959 2.69394C19.776 1.01022 22.1667 0 24.7486 0H54.1066C57.0137 0 59.5956 0.732903 61.5656 2.09969C64.071 3.84283 65.6394 6.65562 66.0601 10.2013L69.9235 35.5759C69.9809 35.9523 70 36.3088 70 36.6654C69.7896 42.3702 65.2377 47.045 59.8825 47.045ZM14.5738 6.57639H4.57104V38.9632H14.5738V6.57639ZM65.3907 36.289L61.5273 10.8748C61.5273 10.855 61.5273 10.8154 61.5082 10.7956C61.3361 9.29015 60.8006 4.73421 54.1066 4.73421H24.7486C22.071 4.73421 19.776 6.71505 19.2787 9.4288C19.2596 9.54765 19.2213 9.6665 19.1831 9.78535V37.3587C19.2978 37.3785 19.4317 37.3983 19.5464 37.4379C19.6995 37.4775 23.1421 38.4877 26.6038 41.043C31.3852 44.5491 33.9098 49.2833 33.9098 54.7108V65.1895C35.2869 65.348 37.2951 65.3282 38.7486 64.2189C40.2596 63.07 41.0437 60.8118 41.0437 57.5434V44.6878C41.0437 43.3804 42.0765 42.3108 43.3388 42.3108H59.8825C62.7705 42.3108 65.2951 39.6366 65.4098 36.4673C65.4098 36.4475 65.4098 36.3881 65.3907 36.289Z" fill="black"/>
</svg>
