<svg width="70" height="70" viewBox="0 0 70 70" fill="none" xmlns="http://www.w3.org/2000/svg">
<path d="M59.8825 22.955H45.6339V12.4764C45.6339 7.60349 44.2377 4.05778 41.4645 1.95809C37.1038 -1.34991 31.1749 0.512076 30.9262 0.611118C29.9699 0.928053 29.3197 1.83924 29.3197 2.86928V15.2892C29.3197 19.132 27.541 22.3806 24.041 24.9953C21.765 26.6988 19.4317 27.5902 18.6093 27.8675C17.9973 26.8969 16.9454 26.263 15.7404 26.263H3.4235C1.53005 26.263 0 27.8675 0 29.8087V64.5923C0 66.5533 1.54918 68.138 3.4235 68.138H15.7404C16.582 68.138 17.347 67.8211 17.959 67.3061C19.776 68.9898 22.1667 70 24.7486 70H54.1066C57.0137 70 59.5956 69.2671 61.5656 67.9003C64.071 66.1572 65.6394 63.3444 66.0601 59.7987L69.9235 34.4241C69.9809 34.0477 70 33.6912 70 33.3346C69.7896 27.6298 65.2377 22.955 59.8825 22.955ZM14.5738 63.4236H4.57104V31.0368H14.5738V63.4236ZM65.3907 33.711L61.5273 59.1252C61.5273 59.145 61.5273 59.1846 61.5082 59.2044C61.3361 60.7099 60.8006 65.2658 54.1066 65.2658H24.7486C22.071 65.2658 19.776 63.285 19.2787 60.5712C19.2596 60.4524 19.2213 60.3335 19.1831 60.2146V32.6413C19.2978 32.6215 19.4317 32.6017 19.5464 32.5621C19.6995 32.5225 23.1421 31.5123 26.6038 28.957C31.3852 25.4509 33.9098 20.7167 33.9098 15.2892V4.8105C35.2869 4.65204 37.2951 4.67185 38.7486 5.78112C40.2596 6.93001 41.0437 9.18816 41.0437 12.4566V25.3122C41.0437 26.6196 42.0765 27.6892 43.3388 27.6892H59.8825C62.7705 27.6892 65.2951 30.3634 65.4098 33.5327C65.4098 33.5525 65.4098 33.6119 65.3907 33.711Z" fill="black"/>
</svg>
