<svg width="200" height="200" viewBox="0 0 200 200" fill="none" xmlns="http://www.w3.org/2000/svg">
<path d="M170.728 29.2724C151.809 10.395 126.694 0 100 0C73.3056 0 48.1913 10.395 29.2724 29.2724C10.395 48.1913 0 73.3056 0 100C0 126.694 10.395 151.809 29.2724 170.728C48.1497 189.605 73.264 200 100 200C126.736 200 151.809 189.605 170.728 170.728C189.605 151.85 200 126.736 200 100C200 73.264 189.605 48.1913 170.728 29.2724ZM100 188.773C51.0603 188.773 11.2266 148.94 11.2266 100C11.2266 51.0603 51.0603 11.2266 100 11.2266C148.94 11.2266 188.773 51.0603 188.773 100C188.773 148.94 148.94 188.773 100 188.773Z" fill="black"/>
<path d="M145.198 95.2599L81.7464 54.553C80 53.4303 77.8378 53.3472 76.0083 54.3451C74.2204 55.343 73.0977 57.2141 73.0977 59.2515V140.624C73.0977 142.661 74.2204 144.574 76.0083 145.53C76.8399 145.988 77.7963 146.237 78.711 146.237C79.7505 146.237 80.8316 145.946 81.7464 145.364L145.198 104.657C146.819 103.617 147.775 101.83 147.775 99.9168C147.775 98.0041 146.778 96.2994 145.198 95.2599ZM84.3243 130.437V69.5634L131.767 100L84.3243 130.437Z" fill="black"/>
</svg>
