<svg width="30" height="30" viewBox="0 0 30 30" fill="none" xmlns="http://www.w3.org/2000/svg">
<path fill-rule="evenodd" clip-rule="evenodd" d="M17.9814 19.3071C14.6686 21.9605 9.81924 21.7516 6.74826 18.6806C3.45322 15.3856 3.45322 10.0433 6.74826 6.74827C10.0433 3.45322 15.3857 3.45322 18.6807 6.74827C21.7517 9.81924 21.9605 14.6685 19.3072 17.9814L25.7517 24.4259C26.1178 24.792 26.1178 25.3856 25.7517 25.7518C25.3857 26.1179 24.7921 26.1179 24.4259 25.7518L17.9814 19.3071ZM8.07409 17.3549C5.51128 14.792 5.51128 10.6369 8.07409 8.07409C10.6369 5.51128 14.7921 5.51128 17.3549 8.07409C19.9158 10.635 19.9177 14.7859 17.3605 17.3493C17.3586 17.3511 17.3567 17.3529 17.3548 17.3549C17.3529 17.3568 17.351 17.3586 17.3492 17.3605C14.7859 19.9176 10.635 19.9158 8.07409 17.3549Z" fill="white"/>
</svg>
